<svg xmlns="http://www.w3.org/2000/svg" viewBox="0 0 187.56 160.68"><defs><style>.cls-1{fill:none;stroke:#ffffff;stroke-linecap:round;stroke-linejoin:round;stroke-width:3px;}.cls-2{fill:#FFFFFF;}</style></defs><title>wombat_outline</title><g id="Layer_2" data-name="Layer 2"><g id="Layer_1-2" data-name="Layer 1"><path class="cls-1" d="M48.61,13.18S67.44,6,97.4,1.5L95.14,7.78l13-4.51-2.55,4.87s17.9-1.67,34.06,4.5"/><circle class="cls-2" cx="58.12" cy="100.34" r="4.85"/><path class="cls-1" d="M28.59,9.09s14,9.51,14.55,16.9c0,0-13.58,1.12-20.22,16.44"/><path class="cls-1" d="M93.65,152.3a10.66,10.66,0,0,0,6.94-2.84,1.93,1.93,0,0,0,.62-1.88,6.69,6.69,0,0,1-.15-1.41c0-3.27,2.27-5.92,5-5.85a1.91,1.91,0,0,0,1.72-1.13,66.9,66.9,0,0,0,2.6-6.25,8.68,8.68,0,0,0-4.89-11l-.22-.09a31.36,31.36,0,0,0-23.33,0l-.22.09a8.68,8.68,0,0,0-4.89,11,66.9,66.9,0,0,0,2.6,6.25,1.91,1.91,0,0,0,1.72,1.13c2.78-.07,5,2.58,5,5.85a6.69,6.69,0,0,1-.15,1.41,1.93,1.93,0,0,0,.62,1.88A10.64,10.64,0,0,0,93.65,152.3Z"/><path class="cls-1" d="M51.54,94.22a9.3,9.3,0,0,1,13.15,0"/><path class="cls-1" d="M52,16S37.4,2.67,27.64,2.65a5.18,5.18,0,0,0-5.17,5.19h0L23,42.47,14.42,61.24q-2,4.38-3.74,8.86l-8.22,21,4.76-2.23S4.54,103.48,1.5,110.29c0,0,5.42-3.7,6.14-5.13,0,0-3.17,19,4.64,26.36A16.47,16.47,0,0,1,15,123.28s9.72,30.4,51,19.12"/><path class="cls-1" d="M64.69,111.38S54.54,130.65,66,142.44c1.94,2,2.41,5.18,7.22,9.85,7.2,7,16.3,8.73,20.49,4.91"/><circle class="cls-2" cx="129.47" cy="100.34" r="4.85"/><path class="cls-1" d="M159,9.09S145,18.6,144.4,26c0,0,13.58,1.12,20.22,16.44"/><path class="cls-1" d="M136.05,94.22a9.3,9.3,0,0,0-13.15,0"/><path class="cls-1" d="M135.61,16S150.14,2.67,160,2.65a5.18,5.18,0,0,1,5.19,5.17v0l-.5,34.63,8.5,18.77q2,4.38,3.74,8.86l8.22,21-4.76-2.23s2.68,14.61,5.72,21.42c0,0-5.42-3.7-6.14-5.13,0,0,3.17,19-4.64,26.36a16.47,16.47,0,0,0-2.68-8.24s-9.72,30.4-51,19.12"/><path class="cls-1" d="M122.9,111.38s10.15,19.27-1.28,31.06c-1.94,2-2.41,5.18-7.22,9.85-7.2,7-16.3,8.73-20.49,4.91"/></g></g></svg>
